<?xml version="1.0" encoding="UTF-8" standalone="no"?>
<!-- Created with Inkscape (http://www.inkscape.org/) -->

<svg
   width="141.8638mm"
   height="156.70274mm"
   viewBox="0 0 141.8638 156.70274"
   version="1.1"
   id="svg1"
   xml:space="preserve"
   xmlns:inkscape="http://www.inkscape.org/namespaces/inkscape"
   xmlns:sodipodi="http://sodipodi.sourceforge.net/DTD/sodipodi-0.dtd"
   xmlns="http://www.w3.org/2000/svg"
   xmlns:svg="http://www.w3.org/2000/svg"><sodipodi:namedview
     id="namedview1"
     pagecolor="#ffffff"
     bordercolor="#000000"
     borderopacity="0.25"
     inkscape:showpageshadow="2"
     inkscape:pageopacity="0.0"
     inkscape:pagecheckerboard="0"
     inkscape:deskcolor="#d1d1d1"
     inkscape:document-units="mm"><inkscape:page
       x="0"
       y="0"
       width="141.8638"
       height="156.70274"
       id="page2"
       margin="0"
       bleed="0" /></sodipodi:namedview><defs
     id="defs1" /><g
     inkscape:label="Capa 1"
     inkscape:groupmode="layer"
     id="layer1"
     transform="translate(174.46895,-116.02945)"><g
       id="g847"
       transform="matrix(0.35277778,0,0,0.35277778,-188.95299,107.3784)"><g
         id="#070e29ff"><path
           fill="#070e29"
           stroke="#070e29"
           stroke-width="0.09375"
           opacity="1"
           d="m 55.44,25.71 c 2.43,-0.83 4.99,-1.21 7.56,-1.13 120.01,0 240.03,-0.01 360.05,0 11.36,0.35 20.73,11.11 20.06,22.39 -0.01,133.7 0.05,267.39 -0.06,401.09 0.31,10.54 -8.62,20.38 -19.25,20.58 -120.95,0.05 -241.9,0.03 -362.85,0.02 -10.76,0.07 -20.29,-9.89 -19.83,-20.63 -0.01,-134.02 -0.01,-268.04 0.03,-402.06 -0.3,-8.9 5.72,-17.66 14.29,-20.26 m 340.18,63.86 c -9.2,17.52 -17.77,35.36 -27.36,52.67 -2.32,3.93 -3.71,8.66 -7.46,11.55 -6.96,5.6 -13.92,11.2 -20.92,16.76 -12.82,-5.06 -25.44,-10.64 -38.12,-16.05 -18.92,-7.85 -37.87,-15.63 -56.78,-23.5 -2.34,-1.29 -4.84,-0.01 -7.05,0.87 -31.05,12.7 -61.97,25.71 -92.86,38.79 -6.75,-5.91 -13.95,-11.25 -20.87,-16.94 -2.68,-2.15 -3.91,-5.47 -5.55,-8.37 C 105.76,121.68 93.95,97.44 81.49,73.55 79.14,69.16 77.03,64.6 73.9,60.69 c -0.45,6.78 0.67,13.52 0.5,20.3 0.07,22.35 0.9,44.68 1.37,67.02 0.79,11 0.74,22.05 1.05,33.07 -0.08,3.49 2.69,5.96 4.57,8.58 7.08,9.23 14.04,18.54 21.15,27.75 2.13,2.15 0.87,5.24 0.48,7.81 -2.71,12.05 -3.46,24.44 -3.33,36.75 -9.15,-3.71 -17.98,-8.2 -27.21,-11.72 4.15,17.28 8.97,34.39 14.05,51.41 5.3,17.45 9.46,35.24 15.11,52.59 1.01,3.68 4.64,5.46 7.41,7.67 8.5,6.09 16.54,12.8 24.95,19.01 -1.26,-5.05 -2.24,-10.42 -5.08,-14.85 -4.97,-4.44 -10.5,-8.21 -15.85,-12.17 -1.64,-1.28 -3.4,-2.69 -3.85,-4.84 -3.24,-11.23 -6.15,-22.56 -9.32,-33.81 -4.48,-16.73 -10.01,-33.18 -13.9,-50.05 7.89,3.34 15.23,7.88 23.24,10.92 0.11,-7.38 -0.86,-14.75 -0.42,-22.14 0.6,-8.12 0.59,-16.39 2.86,-24.28 3.89,4.13 7.1,8.92 11.48,12.59 2.23,0.93 4.57,-0.32 6.67,-1.01 -1.36,-2.31 -2.79,-4.57 -4.38,-6.73 -12.31,-16.99 -24.85,-33.82 -37.52,-50.54 -1.08,-1.53 -2.4,-3.11 -2.38,-5.09 -0.26,-8.65 -0.99,-17.28 -1.04,-25.94 -0.22,-16.7 -1.22,-33.37 -0.91,-50.07 5.82,21.05 12.33,41.91 18.44,62.88 1.18,3.66 1.56,7.87 4.45,10.7 8.98,9.69 17.83,19.5 26.84,29.17 6.86,7.57 13.5,15.35 20.64,22.66 2.13,-1.94 4.14,-4.01 5.95,-6.26 -13.64,-15.02 -27.92,-29.43 -41.59,-44.41 -2.95,-3.37 -6.83,-6.31 -7.89,-10.89 -3.95,-14 -8.39,-27.86 -12.43,-41.82 5.43,9.96 10.53,20.1 15.83,30.14 1.51,3.03 4.11,5.26 6.73,7.31 15.48,12.25 30.8,24.7 46.01,37.3 0.66,-2.99 2.83,-6.19 1.95,-9.19 -4.72,-4.48 -9.92,-8.46 -14.8,-12.77 3.79,-2.58 8.18,-4 12.34,-5.86 24.61,-10.23 48.99,-21.04 73.73,-30.97 1.93,-0.96 4.1,-0.59 5.99,0.29 22.45,9.19 44.75,18.74 67.2,27.93 6.18,2.82 12.78,4.86 18.51,8.58 -4.96,4.69 -10.99,8.27 -15.41,13.47 0.21,3.02 1.52,5.81 2.63,8.59 16.43,-13.23 32.48,-26.95 49.05,-40.02 1.49,-1.19 2.73,-2.67 3.65,-4.34 5.29,-9.81 9.98,-19.94 15.57,-29.58 -3.16,11.77 -7.24,23.28 -10.38,35.07 -1.13,4.07 -1.88,8.55 -5.02,11.65 -15.32,16.6 -31.13,32.75 -46.31,49.48 1.79,2.04 3.46,4.27 5.73,5.81 1.24,-0.05 1.89,-1.35 2.75,-2.07 10.82,-12.15 21.85,-24.12 32.99,-35.99 4.62,-5.75 10.66,-10.41 14.51,-16.72 6.92,-23.02 13.65,-46.11 20.39,-69.18 -0.3,14.09 0.01,28.2 -0.88,42.28 -0.41,11.71 -0.09,23.54 -1.53,35.17 -12.74,17.2 -25.82,34.2 -38.25,51.65 -1.89,2.9 -5,5.52 -4.71,9.3 1.99,0.03 4.08,0.67 6.04,0.05 4.4,-3.64 7.34,-8.7 11.65,-12.45 3.18,15.2 2.54,30.77 2.32,46.19 7.94,-3.31 15.32,-7.84 23.37,-10.91 -1.93,7.21 -3.95,14.38 -5.96,21.56 -6.21,20.71 -11.74,41.62 -17.64,62.42 -1.01,3.34 -4.46,4.92 -6.99,6.97 -4.49,3.47 -9.39,6.53 -13.31,10.65 -2.2,4.47 -3.21,9.41 -4.66,14.15 9.69,-7.26 19.28,-14.67 29.13,-21.72 3.65,-2.18 4.08,-6.72 5.4,-10.37 5.23,-17.67 9.7,-35.56 15.04,-53.2 4.3,-15.12 9.01,-30.18 12.3,-45.55 -9.33,3.55 -18.19,8.2 -27.45,11.92 0.33,-12.38 -0.48,-24.84 -3.36,-36.92 -0.36,-2.22 -1.63,-4.83 0.15,-6.76 7.93,-10.71 16.07,-21.26 23.99,-31.98 1.15,-1.53 2.02,-3.33 1.98,-5.3 0.52,-15.33 1.29,-30.66 1.44,-46.01 0.96,-16.65 0.68,-33.35 1.14,-50.02 0.62,-8.32 0.5,-16.66 0.64,-25 -5.89,9.53 -10.66,19.67 -15.88,29.57 M 200.25,216.39 c -10.93,2.78 -22.48,8.54 -27.23,19.4 -6.65,14.5 -3.81,30.82 -4.49,46.22 0.52,8.4 -1.99,18.19 -9.97,22.41 -4.73,3.16 -10.5,3.37 -15.99,3.26 -0.29,7.92 0.1,15.85 -0.13,23.77 5.45,1.39 11.4,1.56 16.16,4.94 7.94,4.86 9.99,14.92 9.93,23.58 0.4,15.38 -1.7,31.45 4.29,46.07 3.15,8.21 10.25,14.38 18.34,17.53 10.13,4.15 21.21,4.27 31.98,3.99 0.53,-8.28 0.14,-16.58 0.23,-24.86 -6.6,-1.23 -13.93,-0.56 -19.71,-4.49 -4.07,-3.12 -5.33,-8.51 -5.94,-13.34 -0.54,-11.96 0.22,-23.95 -0.41,-35.91 -0.94,-12.7 -9.31,-24.6 -21.42,-28.94 7.52,-3.21 14.73,-8.39 17.91,-16.2 5.45,-12.58 3.37,-26.52 3.79,-39.82 -0.14,-6.81 -0.05,-14.96 5.83,-19.59 5.49,-5.1 13.36,-3.59 20.13,-4.75 0.06,-8.35 0.03,-16.69 0.01,-25.04 -7.79,0.08 -15.72,-0.4 -23.31,1.77 m 60.94,-1.48 c -0.46,8.22 0.32,16.46 0.02,24.7 5.4,-0.06 10.92,0.25 16.07,2.03 4.29,1.49 7.47,5.35 8.58,9.7 3.48,16.89 -1.74,34.85 4.63,51.25 3.15,8.39 10.67,14.19 18.74,17.49 -9.89,3.94 -17.77,12.51 -20.54,22.81 -1.68,5.55 -1.49,11.39 -1.51,17.11 -0.06,9.49 0.37,19.01 -0.82,28.45 -0.72,4.86 -3.75,9.52 -8.44,11.36 -5.23,2.09 -10.98,2.28 -16.54,2.69 0.02,8.36 0,16.72 0.05,25.07 12.1,0.47 24.65,-0.19 35.69,-5.69 7.89,-3.85 13.96,-11.15 16.16,-19.66 4.52,-15.39 2.43,-31.59 3.3,-47.36 0.7,-6.13 2.59,-12.71 7.48,-16.83 5.21,-4.16 12.03,-5.48 18.52,-5.93 -0.04,-8.08 -0.03,-16.15 -0.01,-24.22 -5.29,-0.21 -10.86,-0.06 -15.55,-2.9 -6.4,-3.08 -9.77,-10.03 -10.36,-16.85 -0.92,-13.83 0.73,-27.8 -1.46,-41.55 -1.55,-8.97 -5.84,-17.97 -13.66,-23.09 -11.72,-8.03 -26.54,-9.41 -40.35,-8.58 z"
           id="path2-4" /></g><g
         id="#57eaf4ff"><path
           fill="#57eaf4"
           stroke="#57eaf4"
           stroke-width="0.09375"
           opacity="1"
           d="m 395.62,89.57 c 5.22,-9.9 9.99,-20.04 15.88,-29.57 -0.14,8.34 -0.02,16.68 -0.64,25 -0.46,16.67 -0.18,33.37 -1.14,50.02 -0.15,15.35 -0.92,30.68 -1.44,46.01 0.04,1.97 -0.83,3.77 -1.98,5.3 -7.92,10.72 -16.06,21.27 -23.99,31.98 -1.78,1.93 -0.51,4.54 -0.15,6.76 2.88,12.08 3.69,24.54 3.36,36.92 9.26,-3.72 18.12,-8.37 27.45,-11.92 -3.29,15.37 -8,30.43 -12.3,45.55 -5.34,17.64 -9.81,35.53 -15.04,53.2 -1.32,3.65 -1.75,8.19 -5.4,10.37 -9.85,7.05 -19.44,14.46 -29.13,21.72 1.45,-4.74 2.46,-9.68 4.66,-14.15 3.92,-4.12 8.82,-7.18 13.31,-10.65 2.53,-2.05 5.98,-3.63 6.99,-6.97 5.9,-20.8 11.43,-41.71 17.64,-62.42 2.01,-7.18 4.03,-14.35 5.96,-21.56 -8.05,3.07 -15.43,7.6 -23.37,10.91 0.22,-15.42 0.86,-30.99 -2.32,-46.19 -4.31,3.75 -7.25,8.81 -11.65,12.45 -1.96,0.62 -4.05,-0.02 -6.04,-0.05 -0.29,-3.78 2.82,-6.4 4.71,-9.3 12.43,-17.45 25.51,-34.45 38.25,-51.65 1.44,-11.63 1.12,-23.46 1.53,-35.17 0.89,-14.08 0.58,-28.19 0.88,-42.28 -6.74,23.07 -13.47,46.16 -20.39,69.18 -3.85,6.31 -9.89,10.97 -14.51,16.72 -11.14,11.87 -22.17,23.84 -32.99,35.99 -0.86,0.72 -1.51,2.02 -2.75,2.07 -2.27,-1.54 -3.94,-3.77 -5.73,-5.81 15.18,-16.73 30.99,-32.88 46.31,-49.48 3.14,-3.1 3.89,-7.58 5.02,-11.65 3.14,-11.79 7.22,-23.3 10.38,-35.07 -5.59,9.64 -10.28,19.77 -15.57,29.58 -0.92,1.67 -2.16,3.15 -3.65,4.34 -16.57,13.07 -32.62,26.79 -49.05,40.02 -1.11,-2.78 -2.42,-5.57 -2.63,-8.59 4.42,-5.2 10.45,-8.78 15.41,-13.47 -5.73,-3.72 -12.33,-5.76 -18.51,-8.58 -22.45,-9.19 -44.75,-18.74 -67.2,-27.93 -1.89,-0.88 -4.06,-1.25 -5.99,-0.29 -24.74,9.93 -49.12,20.74 -73.73,30.97 -4.16,1.86 -8.55,3.28 -12.34,5.86 4.88,4.31 10.08,8.29 14.8,12.77 0.88,3 -1.29,6.2 -1.95,9.19 -15.21,-12.6 -30.53,-25.05 -46.01,-37.3 -2.62,-2.05 -5.22,-4.28 -6.73,-7.31 -5.3,-10.04 -10.4,-20.18 -15.83,-30.14 4.04,13.96 8.48,27.82 12.43,41.82 1.06,4.58 4.94,7.52 7.89,10.89 13.67,14.98 27.95,29.39 41.59,44.41 -1.81,2.25 -3.82,4.32 -5.95,6.26 -7.14,-7.31 -13.78,-15.09 -20.64,-22.66 -9.01,-9.67 -17.86,-19.48 -26.84,-29.17 -2.89,-2.83 -3.27,-7.04 -4.45,-10.7 -6.11,-20.97 -12.62,-41.83 -18.44,-62.88 -0.31,16.7 0.69,33.37 0.91,50.07 0.05,8.66 0.78,17.29 1.04,25.94 -0.02,1.98 1.3,3.56 2.38,5.09 12.67,16.72 25.21,33.55 37.52,50.54 1.59,2.16 3.02,4.42 4.38,6.73 -2.1,0.69 -4.44,1.94 -6.67,1.01 -4.38,-3.67 -7.59,-8.46 -11.48,-12.59 -2.27,7.89 -2.26,16.16 -2.86,24.28 -0.44,7.39 0.53,14.76 0.42,22.14 -8.01,-3.04 -15.35,-7.58 -23.24,-10.92 3.89,16.87 9.42,33.32 13.9,50.05 3.17,11.25 6.08,22.58 9.32,33.81 0.45,2.15 2.21,3.56 3.85,4.84 5.35,3.96 10.88,7.73 15.85,12.17 2.84,4.43 3.82,9.8 5.08,14.85 -8.41,-6.21 -16.45,-12.92 -24.95,-19.01 -2.77,-2.21 -6.4,-3.99 -7.41,-7.67 -5.65,-17.35 -9.81,-35.14 -15.11,-52.59 -5.08,-17.02 -9.9,-34.13 -14.05,-51.41 9.23,3.52 18.06,8.01 27.21,11.72 -0.13,-12.31 0.62,-24.7 3.33,-36.75 0.39,-2.57 1.65,-5.66 -0.48,-7.81 -7.11,-9.21 -14.07,-18.52 -21.15,-27.75 -1.88,-2.62 -4.65,-5.09 -4.57,-8.58 -0.31,-11.02 -0.26,-22.07 -1.05,-33.07 -0.47,-22.34 -1.3,-44.67 -1.37,-67.02 0.17,-6.78 -0.95,-13.52 -0.5,-20.3 3.13,3.91 5.24,8.47 7.59,12.86 12.46,23.89 24.27,48.13 37.16,71.8 1.64,2.9 2.87,6.22 5.55,8.37 6.92,5.69 14.12,11.03 20.87,16.94 30.89,-13.08 61.81,-26.09 92.86,-38.79 2.21,-0.88 4.71,-2.16 7.05,-0.87 18.91,7.87 37.86,15.65 56.78,23.5 12.68,5.41 25.3,10.99 38.12,16.05 7,-5.56 13.96,-11.16 20.92,-16.76 3.75,-2.89 5.14,-7.62 7.46,-11.55 9.59,-17.31 18.16,-35.15 27.36,-52.67 z"
           id="path3-2" /><path
           fill="#57eaf4"
           stroke="#57eaf4"
           stroke-width="0.09375"
           opacity="1"
           d="m 261.19,214.91 c 13.81,-0.83 28.63,0.55 40.35,8.58 7.82,5.12 12.11,14.12 13.66,23.09 2.19,13.75 0.54,27.72 1.46,41.55 0.59,6.82 3.96,13.77 10.36,16.85 4.69,2.84 10.26,2.69 15.55,2.9 -0.02,8.07 -0.03,16.14 0.01,24.22 -6.49,0.45 -13.31,1.77 -18.52,5.93 -4.89,4.12 -6.78,10.7 -7.48,16.83 -0.87,15.77 1.22,31.97 -3.3,47.36 -2.2,8.51 -8.27,15.81 -16.16,19.66 -11.04,5.5 -23.59,6.16 -35.69,5.69 -0.05,-8.35 -0.03,-16.71 -0.05,-25.07 5.56,-0.41 11.31,-0.6 16.54,-2.69 4.69,-1.84 7.72,-6.5 8.44,-11.36 1.19,-9.44 0.76,-18.96 0.82,-28.45 0.02,-5.72 -0.17,-11.56 1.51,-17.11 2.77,-10.3 10.65,-18.87 20.54,-22.81 -8.07,-3.3 -15.59,-9.1 -18.74,-17.49 -6.37,-16.4 -1.15,-34.36 -4.63,-51.25 -1.11,-4.35 -4.29,-8.21 -8.58,-9.7 -5.15,-1.78 -10.67,-2.09 -16.07,-2.03 0.3,-8.24 -0.48,-16.48 -0.02,-24.7 z"
           id="path4-7" /></g><g
         id="#f138f5ff"><path
           fill="#f138f5"
           stroke="#f138f5"
           stroke-width="0.09375"
           opacity="1"
           d="m 200.25,216.39 c 7.59,-2.17 15.52,-1.69 23.31,-1.77 0.02,8.35 0.05,16.69 -0.01,25.04 -6.77,1.16 -14.64,-0.35 -20.13,4.75 -5.88,4.63 -5.97,12.78 -5.83,19.59 -0.42,13.3 1.66,27.24 -3.79,39.82 -3.18,7.81 -10.39,12.99 -17.91,16.2 12.11,4.34 20.48,16.24 21.42,28.94 0.63,11.96 -0.13,23.95 0.41,35.91 0.61,4.83 1.87,10.22 5.94,13.34 5.78,3.93 13.11,3.26 19.71,4.49 -0.09,8.28 0.3,16.58 -0.23,24.86 -10.77,0.28 -21.85,0.16 -31.98,-3.99 -8.09,-3.15 -15.19,-9.32 -18.34,-17.53 -5.99,-14.62 -3.89,-30.69 -4.29,-46.07 0.06,-8.66 -1.99,-18.72 -9.93,-23.58 -4.76,-3.38 -10.71,-3.55 -16.16,-4.94 0.23,-7.92 -0.16,-15.85 0.13,-23.77 5.49,0.11 11.26,-0.1 15.99,-3.26 7.98,-4.22 10.49,-14.01 9.97,-22.41 0.68,-15.4 -2.16,-31.72 4.49,-46.22 4.75,-10.86 16.3,-16.62 27.23,-19.4 z"
           id="path5-7" /></g></g></g></svg>
